<?xml version="1.0" encoding="UTF-8"?>
<svg width="24px" height="24px" viewBox="0 0 24 24" version="1.1" xmlns="http://www.w3.org/2000/svg" xmlns:xlink="http://www.w3.org/1999/xlink">
    <!-- Generator: Sketch 51 (57462) - http://www.bohemiancoding.com/sketch -->
    <title>Artboard Copy 5</title>
    <desc>Created with Sketch.</desc>
    <defs>
        <rect id="path-1" x="2.10526316" y="20" width="15.7894737" height="4" rx="2"></rect>
        <filter x="-19.0%" y="-75.0%" width="138.0%" height="250.0%" filterUnits="objectBoundingBox" id="filter-2">
            <feOffset dx="0" dy="0" in="SourceAlpha" result="shadowOffsetOuter1"></feOffset>
            <feGaussianBlur stdDeviation="1" in="shadowOffsetOuter1" result="shadowBlurOuter1"></feGaussianBlur>
            <feColorMatrix values="0 0 0 0 0.164705882   0 0 0 0 0.745098039   0 0 0 0 0.105882353  0 0 0 0 0" type="matrix" in="shadowBlurOuter1"></feColorMatrix>
        </filter>
    </defs>
    <g id="Artboard-Copy-5" stroke="none" stroke-width="1" fill="none" fill-rule="evenodd">
        <g id="Group-26-Copy" transform="translate(2.000000, 0.000000)">
            <g id="Group-8-Copy-4" fill="#B2B2B2">
                <path d="M17.9109447,15.5426608 C18.3919669,15.5426608 18.7819125,15.9145616 18.7819125,16.3733244 C18.7819125,16.8320872 18.3919669,17.203988 17.9109447,17.203988 L5.25330859,17.203988 C4.13841872,17.203988 3.57538152,17.1079063 2.98637591,16.8295396 C2.43646229,16.5696481 1.99570663,16.1801552 1.69615897,15.6851938 C1.36808047,15.1430891 1.25353179,14.6188984 1.25353179,13.6084168 L1.25353179,3.95407346 C1.25353179,2.90957686 0.956130541,2.11680141 0.369427511,1.52952164 C0.0376136826,1.19738164 0.0509423471,0.671588168 0.399197916,0.35512906 C0.747453486,0.0386699526 1.29875866,0.0513818317 1.63057249,0.383521837 C2.54320217,1.29704864 2.99546727,2.502641 2.99546727,3.95407346 L2.99546727,13.6084168 C2.99546727,14.3510269 3.04941906,14.5979178 3.204825,14.8547047 C3.33070482,15.0627039 3.5142467,15.2248986 3.75981331,15.3409545 C4.07484499,15.4898398 4.38437483,15.5426608 5.25330859,15.5426608 L17.9109447,15.5426608 Z" id="Rectangle-30-Copy" fill-rule="nonzero"></path>
                <ellipse id="Oval-10-Copy-2" cx="4.81355932" cy="19.8325509" rx="1.98305085" ry="1.89114416"></ellipse>
                <ellipse id="Oval-10-Copy-3" cx="14.2711864" cy="19.8325509" rx="1.98305085" ry="1.89114416"></ellipse>
                <path d="M6.25825284,5.83120559 C5.77723063,5.83120559 5.38728509,5.45930482 5.38728509,5.00054197 C5.38728509,4.54177913 5.77723063,4.16987836 6.25825284,4.16987836 L16.7042399,4.16987836 C18.3220872,4.16987836 19.6822941,5.28431751 19.6822941,6.72691141 C19.6822941,7.08849762 19.5934581,7.4449389 19.4228786,7.77288213 L17.2908429,11.8717727 C17.0039446,12.4233416 16.8197994,12.6873189 16.5366382,12.9506778 C16.2677008,13.2008077 15.9546805,13.3900055 15.5934269,13.5230959 C15.225464,13.6586582 14.8904658,13.7199268 14.1898744,13.7794072 L5.95858381,14.4782461 C5.47945629,14.5189242 5.05647059,14.1814644 5.01381881,13.7245085 C4.97116703,13.2675527 5.32500053,12.8641407 5.80412805,12.8234626 L14.0354186,12.1246237 C14.5879686,12.0777121 14.7757534,12.0433676 14.9657411,11.9733737 C15.1104578,11.9200583 15.2226941,11.8522197 15.3204686,11.7612828 C15.4416931,11.6485359 15.523343,11.5314884 15.7303689,11.133476 L17.8624047,7.03458548 C17.9144412,6.93454394 17.9403586,6.8305543 17.9403586,6.72691141 C17.9403586,6.26261028 17.413816,5.83120559 16.7042399,5.83120559 L6.25825284,5.83120559 Z" id="Rectangle-31-Copy" fill-rule="nonzero"></path>
            </g>
            <g id="Rectangle-35-Copy-3" fill="black" fill-opacity="1">
                <use filter="url(#filter-2)" xlink:href="#path-1"></use>
            </g>
        </g>
    </g>
</svg>