<?xml version="1.0" encoding="UTF-8"?>
<svg width="23px" height="18px" viewBox="0 0 23 18" version="1.1" xmlns="http://www.w3.org/2000/svg" xmlns:xlink="http://www.w3.org/1999/xlink">
    <!-- Generator: Sketch 51 (57462) - http://www.bohemiancoding.com/sketch -->
    <title>Group 3</title>
    <desc>Created with Sketch.</desc>
    <defs></defs>
    <g id="我的" stroke="none" stroke-width="1" fill="none" fill-rule="evenodd">
        <g id="订单详情-待评价" transform="translate(-15.000000, -126.000000)">
            <rect fill="#F7F7F7" x="0" y="0" width="320" height="568"></rect>
            <g id="Group-3" transform="translate(15.000000, 126.000000)" stroke="#38393C">
                <path d="M8.5,14.5 L22.5,14.5 L22.5,3 C22.5,1.61928813 21.3807119,0.5 20,0.5 L11,0.5 C9.61928813,0.5 8.5,1.61928813 8.5,3 L8.5,14.5 Z" id="Combined-Shape" fill="#FFFFFF"></path>
                <path d="M0.5,8.32467742 L0.5,14.5 L8.5,14.5 L8.5,4.5 L4.69375945,4.5 L0.5,8.32467742 Z" id="Combined-Shape" fill="#FFFFFF"></path>
                <path d="M2.99189813,6.5 L0.946044394,9.5001501 L4.64751544,9.50073739 C5.13363629,9.47430705 5.5,9.11298997 5.5,8.69291669 L5.5,7.30931381 C5.5,6.87074075 5.10146877,6.5 4.5925409,6.5 L2.99189813,6.5 Z" id="Rectangle-5"></path>
                <circle id="Oval" fill="#FFFFFF" cx="5" cy="15" r="2.5"></circle>
                <circle id="Oval-Copy" fill="#FFFFFF" cx="16" cy="15" r="2.5"></circle>
            </g>
        </g>
    </g>
</svg>