<?xml version="1.0" encoding="UTF-8"?>
<svg width="24px" height="24px" viewBox="0 0 24 24" version="1.1" xmlns="http://www.w3.org/2000/svg" xmlns:xlink="http://www.w3.org/1999/xlink">
    <!-- Generator: Sketch 51 (57462) - http://www.bohemiancoding.com/sketch -->
    <title>Group Copy 2</title>
    <desc>Created with Sketch.</desc>
    <defs>
        <linearGradient x1="50%" y1="0%" x2="50%" y2="100%" id="linearGradient-1">
            <stop stop-color="#74CF5B" offset="0%"></stop>
            <stop stop-color="#32AF1E" offset="100%"></stop>
        </linearGradient>
    </defs>
    <g id="首页" stroke="none" stroke-width="1" fill="none" fill-rule="evenodd">
        <g id="Group-Copy-2">
            <g id="Group-15">
                <path d="M23.6113474,15.0401706 C23.508296,15.4347777 23.1048642,15.6711303 22.7102571,15.5680789 C22.31565,15.4650275 22.0792975,15.0615956 22.1823489,14.6669885 C22.4077807,13.8037592 22.5230769,12.9098209 22.5230769,12 C22.5230769,6.18826509 17.8117349,1.47692308 12,1.47692308 C6.18826509,1.47692308 1.47692308,6.18826509 1.47692308,12 C1.47692308,17.8117349 6.18826509,22.5230769 12,22.5230769 C13.5560086,22.5230769 15.0627852,22.1856039 16.4412034,21.5429288 C16.8108424,21.370588 17.2502038,21.5305297 17.4225446,21.9001687 C17.5948854,22.2698077 17.4349437,22.7091691 17.0653047,22.8815099 C15.4924396,23.6148441 13.7727647,24 12,24 C5.372583,24 0,18.627417 0,12 C0,5.372583 5.372583,0 12,0 C18.627417,0 24,5.372583 24,12 C24,13.0360212 23.8685302,14.0553598 23.6113474,15.0401706 Z" id="Oval-15" fill="#4A4A4A" fill-rule="nonzero"></path>
                <rect id="Rectangle-5" fill="url(#linearGradient-1)" x="8" y="12" width="7" height="4" rx="1"></rect>
                <rect id="Rectangle-5-Copy" fill="url(#linearGradient-1)" x="7" y="8" width="9" height="4" rx="1"></rect>
                <path d="M20.5807692,18.9961538 L22.4557692,18.9961538 C22.9390184,18.9961538 23.3307692,19.3879047 23.3307692,19.8711538 C23.3307692,20.354403 22.9390184,20.7461538 22.4557692,20.7461538 L19.7057692,20.7461538 C19.2225201,20.7461538 18.8307692,20.354403 18.8307692,19.8711538 L18.8307692,17.1211538 C18.8307692,16.6379047 19.2225201,16.2461538 19.7057692,16.2461538 C20.1890184,16.2461538 20.5807692,16.6379047 20.5807692,17.1211538 L20.5807692,18.9961538 Z" id="Combined-Shape" fill="#4A4A4A"></path>
            </g>
        </g>
    </g>
</svg>