<?xml version="1.0" encoding="UTF-8"?>
<svg width="24px" height="24px" viewBox="0 0 24 24" version="1.1" xmlns="http://www.w3.org/2000/svg" xmlns:xlink="http://www.w3.org/1999/xlink">
    <!-- Generator: Sketch 51 (57462) - http://www.bohemiancoding.com/sketch -->
    <title>Group Copy 2</title>
    <desc>Created with Sketch.</desc>
    <defs>
        <linearGradient x1="33.8287468%" y1="85.0793865%" x2="33.8287468%" y2="0%" id="linearGradient-1">
            <stop stop-color="#96F18C" stop-opacity="0" offset="0%"></stop>
            <stop stop-color="#18B801" stop-opacity="0.236865942" offset="100%"></stop>
        </linearGradient>
        <linearGradient x1="8.46781433%" y1="0%" x2="100%" y2="90.3768578%" id="linearGradient-2">
            <stop stop-color="#96F18C" offset="0%"></stop>
            <stop stop-color="#18B801" offset="100%"></stop>
        </linearGradient>
        <linearGradient x1="-329.892711%" y1="-285.579845%" x2="100%" y2="90.3768578%" id="linearGradient-3">
            <stop stop-color="#96F18C" offset="0%"></stop>
            <stop stop-color="#18B801" offset="100%"></stop>
        </linearGradient>
        <linearGradient x1="-24.2187249%" y1="-68.0995877%" x2="143.266019%" y2="213.3064%" id="linearGradient-4">
            <stop stop-color="#96F18C" offset="0%"></stop>
            <stop stop-color="#18B801" offset="100%"></stop>
        </linearGradient>
        <linearGradient x1="-44.1204177%" y1="-118.907405%" x2="137.630233%" y2="160.309368%" id="linearGradient-5">
            <stop stop-color="#96F18C" offset="0%"></stop>
            <stop stop-color="#18B801" offset="100%"></stop>
        </linearGradient>
    </defs>
    <g id="首页" stroke="none" stroke-width="1" fill="none" fill-rule="evenodd">
        <g id="Group-Copy-2">
            <circle id="Oval-2" fill="url(#linearGradient-1)" transform="translate(9.500000, 7.500000) scale(-1, 1) translate(-9.500000, -7.500000) " cx="9.5" cy="7.5" r="7.5"></circle>
            <g id="Group-15">
                <path d="M23.6113474,15.0401706 C23.508296,15.4347777 23.1048642,15.6711303 22.7102571,15.5680789 C22.31565,15.4650275 22.0792975,15.0615956 22.1823489,14.6669885 C22.4077807,13.8037592 22.5230769,12.9098209 22.5230769,12 C22.5230769,6.18826509 17.8117349,1.47692308 12,1.47692308 C6.18826509,1.47692308 1.47692308,6.18826509 1.47692308,12 C1.47692308,17.8117349 6.18826509,22.5230769 12,22.5230769 C13.5560086,22.5230769 15.0627852,22.1856039 16.4412034,21.5429288 C16.8108424,21.370588 17.2502038,21.5305297 17.4225446,21.9001687 C17.5948854,22.2698077 17.4349437,22.7091691 17.0653047,22.8815099 C15.4924396,23.6148441 13.7727647,24 12,24 C5.372583,24 0,18.627417 0,12 C0,5.372583 5.372583,0 12,0 C18.627417,0 24,5.372583 24,12 C24,13.0360212 23.8685302,14.0553598 23.6113474,15.0401706 Z" id="Oval-15" fill="url(#linearGradient-2)" fill-rule="nonzero"></path>
                <path d="M20.5807692,18.9961538 L22.4557692,18.9961538 C22.9390184,18.9961538 23.3307692,19.3879047 23.3307692,19.8711538 C23.3307692,20.354403 22.9390184,20.7461538 22.4557692,20.7461538 L19.7057692,20.7461538 C19.2225201,20.7461538 18.8307692,20.354403 18.8307692,19.8711538 L18.8307692,17.1211538 C18.8307692,16.6379047 19.2225201,16.2461538 19.7057692,16.2461538 C20.1890184,16.2461538 20.5807692,16.6379047 20.5807692,17.1211538 L20.5807692,18.9961538 Z" id="Combined-Shape" fill="url(#linearGradient-3)"></path>
                <path d="M7.58122492,8.50912769 C7.58039904,8.50927979 7.57959032,8.50943229 7.57879869,8.50958516 C7.58117357,8.50912655 7.58412824,8.5083841 7.58743372,8.50744858 L7.58122492,8.50912769 Z M7.75384615,8.6720489 L7.75384615,10.5279511 C7.75384615,10.5971236 7.75485076,10.6558448 7.75656461,10.7049739 C7.80569367,10.7066877 7.8644149,10.7076923 7.93358736,10.7076923 L16.0664126,10.7076923 C16.1355851,10.7076923 16.1943063,10.7066877 16.2434354,10.7049739 C16.2451492,10.6558448 16.2461538,10.5971236 16.2461538,10.5279511 L16.2461538,8.6720489 C16.2461538,8.60287644 16.2451492,8.54415521 16.2434354,8.49502614 C16.1943063,8.4933123 16.1355851,8.49230769 16.0664126,8.49230769 L7.93358736,8.49230769 C7.8644149,8.49230769 7.80569367,8.4933123 7.75656461,8.49502614 C7.75485076,8.54415521 7.75384615,8.60287644 7.75384615,8.6720489 Z M16.2293339,8.31968646 C16.2291817,8.31886057 16.2290292,8.31805186 16.2288764,8.31726023 C16.229335,8.31963511 16.2300774,8.32258978 16.231013,8.32589526 L16.2293339,8.31968646 Z M7.93358736,7.01538462 L16.0664126,7.01538462 C16.6424709,7.01538462 16.8513635,7.07536424 17.0619618,7.18799344 C17.2725601,7.30062264 17.4378389,7.46590141 17.5504681,7.6764997 C17.6630973,7.88709799 17.7230769,8.09599064 17.7230769,8.6720489 L17.7230769,10.5279511 C17.7230769,11.1040094 17.6630973,11.312902 17.5504681,11.5235003 C17.4378389,11.7340986 17.2725601,11.8993774 17.0619618,12.0120066 C16.8513635,12.1246358 16.6424709,12.1846154 16.0664126,12.1846154 L7.93358736,12.1846154 C7.3575291,12.1846154 7.14863645,12.1246358 6.93803816,12.0120066 C6.72743987,11.8993774 6.5621611,11.7340986 6.4495319,11.5235003 C6.3369027,11.312902 6.27692308,11.1040094 6.27692308,10.5279511 L6.27692308,8.6720489 C6.27692308,8.09599064 6.3369027,7.88709799 6.4495319,7.6764997 C6.5621611,7.46590141 6.72743987,7.30062264 6.93803816,7.18799344 C7.14863645,7.07536424 7.3575291,7.01538462 7.93358736,7.01538462 Z" id="Rectangle-41" fill="url(#linearGradient-4)" fill-rule="nonzero"></path>
                <path d="M8.68891723,12.2014354 C8.68809134,12.2015875 8.68728263,12.20174 8.686491,12.2018929 C8.68886588,12.2014342 8.69182055,12.2006918 8.69512603,12.1997563 L8.68891723,12.2014354 Z M8.86153846,12.3643566 L8.86153846,15.3279511 C8.86153846,15.3971236 8.86254307,15.4558448 8.86425691,15.5049739 C8.91338598,15.5066877 8.97210721,15.5076923 9.04127967,15.5076923 L14.9587203,15.5076923 C15.0278928,15.5076923 15.086614,15.5066877 15.1357431,15.5049739 C15.1374569,15.4558448 15.1384615,15.3971236 15.1384615,15.3279511 L15.1384615,12.3643566 C15.1384615,12.2951841 15.1374569,12.2364629 15.1357431,12.1873338 C15.086614,12.18562 15.0278928,12.1846154 14.9587203,12.1846154 L9.04127967,12.1846154 C8.97210721,12.1846154 8.91338598,12.18562 8.86425691,12.1873338 C8.86254307,12.2364629 8.86153846,12.2951841 8.86153846,12.3643566 Z M15.1216415,12.0119942 C15.1214894,12.0111683 15.1213369,12.0103596 15.1211841,12.0095679 C15.1216427,12.0119428 15.1223851,12.0148975 15.1233207,12.0182029 L15.1216415,12.0119942 Z M9.04127967,10.7076923 L14.9587203,10.7076923 C15.5347786,10.7076923 15.7436712,10.7676719 15.9542695,10.8803011 C16.1648678,10.9929303 16.3301466,11.1582091 16.4427758,11.3688074 C16.555405,11.5794057 16.6153846,11.7882983 16.6153846,12.3643566 L16.6153846,15.3279511 C16.6153846,15.9040094 16.555405,16.112902 16.4427758,16.3235003 C16.3301466,16.5340986 16.1648678,16.6993774 15.9542695,16.8120066 C15.7436712,16.9246358 15.5347786,16.9846154 14.9587203,16.9846154 L9.04127967,16.9846154 C8.46522141,16.9846154 8.25632876,16.9246358 8.04573047,16.8120066 C7.83513218,16.6993774 7.66985341,16.5340986 7.55722421,16.3235003 C7.44459501,16.112902 7.38461538,15.9040094 7.38461538,15.3279511 L7.38461538,12.3643566 C7.38461538,11.7882983 7.44459501,11.5794057 7.55722421,11.3688074 C7.66985341,11.1582091 7.83513218,10.9929303 8.04573047,10.8803011 C8.25632876,10.7676719 8.46522141,10.7076923 9.04127967,10.7076923 Z" id="Rectangle-41-Copy" fill="url(#linearGradient-5)" fill-rule="nonzero"></path>
            </g>
        </g>
    </g>
</svg>