<?xml version="1.0" encoding="UTF-8"?>
<svg width="24px" height="24px" viewBox="0 0 24 24" version="1.1" xmlns="http://www.w3.org/2000/svg" xmlns:xlink="http://www.w3.org/1999/xlink">
    <!-- Generator: Sketch 51 (57462) - http://www.bohemiancoding.com/sketch -->
    <title>Group 3 Copy</title>
    <desc>Created with Sketch.</desc>
    <defs>
        <linearGradient x1="50%" y1="85.6311762%" x2="50%" y2="0%" id="linearGradient-1">
            <stop stop-color="#96F18C" stop-opacity="0" offset="0%"></stop>
            <stop stop-color="#18B801" stop-opacity="0.236865942" offset="100%"></stop>
        </linearGradient>
        <linearGradient x1="8.46781433%" y1="0%" x2="100%" y2="90.3768578%" id="linearGradient-2">
            <stop stop-color="#96F18C" offset="0%"></stop>
            <stop stop-color="#18B801" offset="100%"></stop>
        </linearGradient>
        <linearGradient x1="-211.1789%" y1="-200.571709%" x2="100%" y2="90.3768578%" id="linearGradient-3">
            <stop stop-color="#47E935" offset="0%"></stop>
            <stop stop-color="#18B801" offset="100%"></stop>
        </linearGradient>
    </defs>
    <g id="首页" stroke="none" stroke-width="1" fill="none" fill-rule="evenodd">
        <g id="Group-3-Copy">
            <circle id="Oval-2-Copy" fill="url(#linearGradient-1)" transform="translate(9.500000, 8.500000) scale(-1, 1) translate(-9.500000, -8.500000) " cx="9.5" cy="8.5" r="7.5"></circle>
            <g id="Group-18">
                <g id="Group-13">
                    <path d="M11.9229366,17.5781756 C11.5413633,17.5781756 11.1807957,17.4207449 10.9080027,17.1349932 L7.08798164,13.1219225 C6.3873671,12.3912989 6,11.4148351 6,10.3739201 C6,9.33300503 6.3873671,8.35598736 7.09061055,7.6224832 C7.78650327,6.89811911 8.70786883,6.5 9.68495174,6.5 C10.5206611,6.5 11.2517505,6.78517007 11.9097921,7.36922028 C12.562576,6.78517005 13.3015776,6.5 14.1609215,6.5 C15.1380045,6.5 16.0588595,6.89811911 16.7536803,7.62076598 C17.4579702,8.35197128 17.8458733,9.32957058 17.8458733,10.3738924 C17.8458733,11.4153614 17.4585062,12.3918251 16.7557987,13.1247476 L12.9384066,17.1344116 C12.6650776,17.4207449 12.3045355,17.5781756 11.9229366,17.5781756 Z M9.68495172,8.25217838 C9.12624671,8.25217838 8.60169188,8.47746717 8.20855652,8.88641589 C7.82591122,9.2856706 7.61462937,9.81440957 7.61462937,10.3739201 C7.61462937,10.9334307 7.82540078,11.461034 8.20855652,11.8602887 L11.9229366,15.7627092 L15.6352238,11.8631415 C16.020498,11.4616157 16.2312439,10.9340123 16.2312439,10.3739201 C16.2312439,9.80413391 16.0257303,9.29024062 15.6373167,8.88699752 L15.6367808,8.88586192 C15.2441559,8.47749484 14.7196265,8.25217836 14.160896,8.25217836 C13.6332018,8.25217836 13.2195457,8.43013266 12.8243174,8.82825181 L11.9418494,9.98494101 L11.0315099,8.86303944 C10.6178793,8.44096229 10.2010839,8.25217838 9.68495172,8.25217838 Z" id="Shape" fill="url(#linearGradient-2)" fill-rule="nonzero"></path>
                    <path d="M23.3064453,15.6400976 C23.1584461,16.1001258 22.6655425,16.3530754 22.2055142,16.2050762 C21.745486,16.0570771 21.4925364,15.5641735 21.6405356,15.1041452 C21.9602947,14.1102325 22.125,13.0667821 22.125,12 C22.125,6.40811691 17.5918831,1.875 12,1.875 C6.40811691,1.875 1.875,6.40811691 1.875,12 C1.875,17.5918831 6.40811691,22.125 12,22.125 C13.3008287,22.125 14.5662399,21.8800297 15.7474995,21.4091032 C16.1963915,21.2301458 16.7053639,21.4489711 16.8843213,21.897863 C17.0632787,22.346755 16.8444535,22.8557275 16.3955615,23.0346849 C15.0089723,23.587469 13.5237107,23.875 12,23.875 C5.4416186,23.875 0.125,18.5583814 0.125,12 C0.125,5.4416186 5.4416186,0.125 12,0.125 C18.5583814,0.125 23.875,5.4416186 23.875,12 C23.875,13.2492672 23.6817575,14.4735081 23.3064453,15.6400976 Z" id="Oval-13" fill="url(#linearGradient-2)" fill-rule="nonzero"></path>
                    <path d="M19.25,18.25 L21.125,18.25 C21.6082492,18.25 22,18.6417508 22,19.125 C22,19.6082492 21.6082492,20 21.125,20 L18.375,20 C17.8917508,20 17.5,19.6082492 17.5,19.125 L17.5,16.375 C17.5,15.8917508 17.8917508,15.5 18.375,15.5 C18.8582492,15.5 19.25,15.8917508 19.25,16.375 L19.25,18.25 Z" id="Combined-Shape" fill="url(#linearGradient-3)"></path>
                </g>
            </g>
        </g>
    </g>
</svg>