<?xml version="1.0" encoding="UTF-8"?>
<svg width="24px" height="24px" viewBox="0 0 24 24" version="1.1" xmlns="http://www.w3.org/2000/svg" xmlns:xlink="http://www.w3.org/1999/xlink">
    <!-- Generator: Sketch 51 (57462) - http://www.bohemiancoding.com/sketch -->
    <title>Group 3 Copy</title>
    <desc>Created with Sketch.</desc>
    <defs>
        <linearGradient x1="50%" y1="0%" x2="50%" y2="100%" id="linearGradient-1">
            <stop stop-color="#74CF5B" offset="0%"></stop>
            <stop stop-color="#32AF1E" offset="100%"></stop>
        </linearGradient>
    </defs>
    <g id="首页" stroke="none" stroke-width="1" fill="none" fill-rule="evenodd">
        <g id="Group-3-Copy">
            <path d="M12.120963,16.5781756 C11.7910552,16.5781756 11.4793089,16.4420612 11.2434524,16.1950007 L7.94066745,12.7253052 C7.33491707,12.093609 7,11.2493598 7,10.3493861 C7,9.44941231 7.33491707,8.60468415 7.9429404,7.97049746 C8.5446083,7.34421325 9.34121972,7 10.1860043,7 C10.9085575,7 11.5406563,7.24655766 12.1095983,7.75152667 C12.6739943,7.24655764 13.3129341,7 14.0559217,7 C14.9007063,7 15.6968763,7.34421325 16.2976174,7.96901275 C16.9065455,8.60121186 17.241926,9.44644289 17.241926,10.3493621 C17.241926,11.2498148 16.9070089,12.094064 16.299449,12.7277478 L12.9989369,16.1944978 C12.762617,16.4420612 12.4508928,16.5781756 12.120963,16.5781756 Z" id="Shape" fill="url(#linearGradient-1)" fill-rule="nonzero"></path>
            <path d="M23.3064453,15.6400976 C23.1584461,16.1001258 22.6655425,16.3530754 22.2055142,16.2050762 C21.745486,16.0570771 21.4925364,15.5641735 21.6405356,15.1041452 C21.9602947,14.1102325 22.125,13.0667821 22.125,12 C22.125,6.40811691 17.5918831,1.875 12,1.875 C6.40811691,1.875 1.875,6.40811691 1.875,12 C1.875,17.5918831 6.40811691,22.125 12,22.125 C13.3008287,22.125 14.5662399,21.8800297 15.7474995,21.4091032 C16.1963915,21.2301458 16.7053639,21.4489711 16.8843213,21.897863 C17.0632787,22.346755 16.8444535,22.8557275 16.3955615,23.0346849 C15.0089723,23.587469 13.5237107,23.875 12,23.875 C5.4416186,23.875 0.125,18.5583814 0.125,12 C0.125,5.4416186 5.4416186,0.125 12,0.125 C18.5583814,0.125 23.875,5.4416186 23.875,12 C23.875,13.2492672 23.6817575,14.4735081 23.3064453,15.6400976 Z" id="Oval-13" fill="#4A4A4A" fill-rule="nonzero"></path>
            <path d="M19.25,18.25 L21.125,18.25 C21.6082492,18.25 22,18.6417508 22,19.125 C22,19.6082492 21.6082492,20 21.125,20 L18.375,20 C17.8917508,20 17.5,19.6082492 17.5,19.125 L17.5,16.375 C17.5,15.8917508 17.8917508,15.5 18.375,15.5 C18.8582492,15.5 19.25,15.8917508 19.25,16.375 L19.25,18.25 Z" id="Combined-Shape" fill="#4A4A4A"></path>
        </g>
    </g>
</svg>