<?xml version="1.0" encoding="UTF-8"?>
<svg width="24px" height="24px" viewBox="0 0 24 24" version="1.1" xmlns="http://www.w3.org/2000/svg" xmlns:xlink="http://www.w3.org/1999/xlink">
    <!-- Generator: Sketch 51 (57462) - http://www.bohemiancoding.com/sketch -->
    <title>Group 2 Copy</title>
    <desc>Created with Sketch.</desc>
    <defs>
        <linearGradient x1="28.3654363%" y1="123.169231%" x2="28.3654363%" y2="0%" id="linearGradient-1">
            <stop stop-color="#96F18C" stop-opacity="0" offset="0%"></stop>
            <stop stop-color="#18B801" stop-opacity="0.236865942" offset="100%"></stop>
        </linearGradient>
        <linearGradient x1="8.46781433%" y1="0%" x2="100%" y2="90.3768578%" id="linearGradient-2">
            <stop stop-color="#96F18C" offset="0%"></stop>
            <stop stop-color="#18B801" offset="100%"></stop>
        </linearGradient>
    </defs>
    <g id="首页" stroke="none" stroke-width="1" fill="none" fill-rule="evenodd">
        <g id="Group-2-Copy">
            <rect id="Rectangle-2" fill="url(#linearGradient-1)" x="7" y="1" width="13" height="10" rx="1"></rect>
            <g id="Group-17" fill="url(#linearGradient-2)" fill-rule="nonzero">
                <path d="M7.68978308,13.8281652 L4.25609651,13.8281652 C3.78219694,13.8281652 3.39763372,13.4160623 3.39763372,12.9062227 C3.39763372,12.3973555 3.78219697,11.9843686 4.25609651,11.9843686 L6.83140258,11.9843686 L6.83140258,9.21877682 C6.83140258,8.70985064 7.21599325,8.29680485 7.68975562,8.29680485 C8.16365519,8.29680485 8.54821841,8.70985064 8.54821841,9.21877682 L8.54821841,12.9062227 C8.54824586,13.4160623 8.16368262,13.8281652 7.68978308,13.8281652 Z M17.082773,16.4462828 C15.4208321,16.4462828 14.03354,17.6934937 13.6678537,19.3593783 L10.3466881,19.3593783 C9.98267554,17.6916963 8.59370973,16.4435719 6.93097309,16.4435719 C4.99172187,16.4435719 3.41401388,18.1370951 3.41401388,20.2195024 C3.41401388,22.3038839 4.99172187,24 6.93097309,24 C8.55074267,24 9.90450624,22.8089501 10.310553,21.2039999 L13.7022877,21.2039999 C14.1074565,22.8089501 15.4611652,23.9982615 17.0827731,23.9982615 C19.020186,23.9982615 20.5971257,22.3046795 20.5971257,20.2222722 C20.5971257,18.1396586 19.020186,16.4462828 17.082773,16.4462828 Z M6.93176875,22.1555257 C5.93941121,22.1555257 5.1316254,21.2870334 5.1316254,20.2186479 C5.1316254,19.1537393 5.93864298,18.2862489 6.93176875,18.2862489 C7.92409884,18.2862489 8.73111642,19.1529438 8.73111642,20.2186479 C8.73111644,21.2870628 7.92409886,22.1555257 6.93176875,22.1555257 Z M17.082773,22.1536988 C16.0912112,22.1536988 15.2834254,21.2870628 15.2834254,20.2213587 C15.2834254,19.1556546 16.0904155,18.2891365 17.082773,18.2891365 C18.0732923,18.2891365 18.8803098,19.1556546 18.8803098,20.2213587 C18.8803098,21.2870628 18.0741977,22.1536988 17.082773,22.1536988 Z M21.4254622,0 L8.97056302,0 C7.79105468,0 6.83143003,1.0306698 6.83143003,2.29732784 L6.83143003,4.9624132 L1.60956285,7.78057125 C1.57260463,7.8009613 1.53660669,7.82388536 1.50228245,7.84978544 C0.533905244,8.58088062 0,9.72125005 0,11.0625145 L0,20.3385425 C0,20.8483232 0.384590674,21.2602493 0.858490242,21.2602493 C1.33228004,21.2602493 1.71684328,20.8483232 1.71684328,20.3385425 L1.71684326,11.0625145 C1.71684326,10.3415554 1.96059752,9.78012193 2.44223443,9.39486198 L8.07530661,6.3554778 C8.11393853,6.33505829 8.1388243,6.29822655 8.17314855,6.27247379 C8.22371575,6.23461078 8.27436529,6.2006077 8.3156312,6.15263807 C8.35335769,6.1083516 8.37824346,6.05669877 8.40746433,6.00690227 C8.43665778,5.95710578 8.46757978,5.91111031 8.48722498,5.85486088 C8.50870851,5.79209961 8.51474474,5.72765879 8.52338755,5.66212777 C8.53019204,5.6169868 8.54824586,5.57732639 8.54824586,5.53133092 L8.54824586,2.29732787 C8.54824586,2.04752032 8.73792093,1.84367878 8.97056302,1.84367878 L21.4254622,1.84367878 C21.8984563,1.84367878 22.283047,2.26414984 22.283047,2.7804129 L22.283047,20.2812618 C22.283047,20.7909836 22.6668145,21.2031454 23.1415098,21.2031454 C23.6162324,21.2031454 24,20.7909836 24,20.2812618 L24,2.7804129 C24,1.24724038 22.8444445,0 21.4254622,0 Z" id="Shape"></path>
            </g>
        </g>
    </g>
</svg>