<?xml version="1.0" encoding="UTF-8"?>
<svg width="24px" height="24px" viewBox="0 0 24 24" version="1.1" xmlns="http://www.w3.org/2000/svg" xmlns:xlink="http://www.w3.org/1999/xlink">
    <!-- Generator: Sketch 51 (57462) - http://www.bohemiancoding.com/sketch -->
    <title>Shape Copy 4</title>
    <desc>Created with Sketch.</desc>
    <defs></defs>
    <g id="我的" stroke="none" stroke-width="1" fill="none" fill-rule="evenodd">
        <path d="M0.0249480249,23 C0.0249480249,23.55 0.474012474,24 1.02286902,24 L22.977131,24 C23.5259875,24 23.975052,23.55 23.975052,23 L23.975052,6 L0.0249480249,6 L0.0249480249,23 Z M13.970894,14 L19.983368,14 L19.983368,16 L13.970894,16 L13.970894,14 Z M11.975052,18 L19.983368,18 L19.983368,20 L11.975052,20 L11.975052,18 Z M11.4760915,5 L0,5 L2.3950104,0.775 C2.76923077,0.275 3.34303534,0 3.96673597,0 L11.4760915,0 L11.4760915,5 Z M24,5 L12.5239085,5 L12.5239085,0 L20.033264,0 C20.6569647,0 21.2307692,0.3 21.6049896,0.775 L24,5 Z" id="Shape-Copy-4" fill="#4A4A4A" fill-rule="nonzero"></path>
    </g>
</svg>