<?xml version="1.0" encoding="UTF-8"?>
<svg width="24px" height="24px" viewBox="0 0 24 24" version="1.1" xmlns="http://www.w3.org/2000/svg" xmlns:xlink="http://www.w3.org/1999/xlink">
    <!-- Generator: Sketch 51 (57462) - http://www.bohemiancoding.com/sketch -->
    <title>Artboard Copy 3</title>
    <desc>Created with Sketch.</desc>
    <defs>
        <rect id="path-1" x="4" y="20" width="15" height="4" rx="2"></rect>
        <filter x="-20.0%" y="-75.0%" width="140.0%" height="250.0%" filterUnits="objectBoundingBox" id="filter-2">
            <feOffset dx="0" dy="0" in="SourceAlpha" result="shadowOffsetOuter1"></feOffset>
            <feGaussianBlur stdDeviation="1" in="shadowOffsetOuter1" result="shadowBlurOuter1"></feGaussianBlur>
            <feColorMatrix values="0 0 0 0 0.164705882   0 0 0 0 0.745098039   0 0 0 0 0.105882353  0 0 0 0 0" type="matrix" in="shadowBlurOuter1"></feColorMatrix>
        </filter>
    </defs>
    <g id="Artboard-Copy-3" stroke="none" stroke-width="1" fill="none" fill-rule="evenodd">
        <g id="Group-23" transform="translate(1.000000, 0.000000)">
            <g id="Group-9-Copy-2" fill="#B2B2B2" fill-rule="nonzero">
                <path d="M11,20.2162162 C16.0899757,20.2162162 20.2162162,16.0899757 20.2162162,11 C20.2162162,5.91002433 16.0899757,1.78378378 11,1.78378378 C5.91002433,1.78378378 1.78378378,5.91002433 1.78378378,11 C1.78378378,16.0899757 5.91002433,20.2162162 11,20.2162162 Z M11,22 C4.92486775,22 0,17.0751322 0,11 C0,4.92486775 4.92486775,0 11,0 C17.0751322,0 22,4.92486775 22,11 C22,17.0751322 17.0751322,22 11,22 Z" id="Oval-10"></path>
                <path d="M11.8705294,12.8558566 C12.4330981,12.6225356 12.5863435,12.5438839 12.7231233,12.4444433 C12.8097989,12.3814291 12.8694942,12.3200346 12.9300516,12.2316249 C13.025615,12.0921088 13.0999357,11.9367168 13.3173796,11.3678227 L14.8590555,7.33436575 L10.3223443,8.94745447 C9.71451733,9.16357554 9.54919729,9.24032158 9.39872521,9.34454009 C9.30219989,9.41139453 9.23479834,9.47958136 9.16906644,9.57687457 C9.06659782,9.7285437 8.99177182,9.89474159 8.78270567,10.5050311 L7.33265508,14.737905 L11.8705294,12.8558566 Z M9.72474769,7.26675138 L14.8689613,5.43765701 C15.6424835,5.16262076 16.4925081,5.56672351 16.7675443,6.34024574 C16.8860936,6.67365801 16.8818138,7.03842527 16.7554745,7.36896429 L14.9835988,12.0046884 C14.70299,12.73884 14.5773256,12.9832589 14.4017049,13.2396533 C14.2260842,13.4960476 14.023414,13.7044867 13.7720484,13.8872325 C13.5206829,14.0699783 13.2798862,14.2024515 12.5538974,14.5035498 L7.4073114,16.6380566 C6.64898156,16.9525681 5.77927186,16.5927822 5.46476041,15.8344524 C5.32596573,15.4997996 5.31416571,15.1259783 5.43157782,14.7832381 L7.09519341,9.92694204 C7.36892905,9.12787444 7.50145517,8.85882862 7.69099529,8.57828043 C7.8805354,8.29773224 8.10474374,8.0709117 8.38307769,7.87813473 C8.66141163,7.68535776 8.92890437,7.54972419 9.72474769,7.26675138 Z" id="Rectangle-32"></path>
            </g>
            <g id="Rectangle-35-Copy-5" fill="black" fill-opacity="1">
                <use filter="url(#filter-2)" xlink:href="#path-1"></use>
            </g>
        </g>
    </g>
</svg>