<?xml version="1.0" encoding="UTF-8"?>
<svg width="22px" height="26px" viewBox="0 0 22 26" version="1.1" xmlns="http://www.w3.org/2000/svg" xmlns:xlink="http://www.w3.org/1999/xlink">
    <!-- Generator: Sketch 51 (57462) - http://www.bohemiancoding.com/sketch -->
    <title>Group 2</title>
    <desc>Created with Sketch.</desc>
    <defs>
        <rect id="path-1" x="4" y="20" width="15" height="4" rx="2"></rect>
        <filter x="-20.0%" y="-75.0%" width="140.0%" height="250.0%" filterUnits="objectBoundingBox" id="filter-2">
            <feOffset dx="0" dy="0" in="SourceAlpha" result="shadowOffsetOuter1"></feOffset>
            <feGaussianBlur stdDeviation="1" in="shadowOffsetOuter1" result="shadowBlurOuter1"></feGaussianBlur>
            <feColorMatrix values="0 0 0 0 0.164705882   0 0 0 0 0.745098039   0 0 0 0 0.105882353  0 0 0 0.2 0" type="matrix" in="shadowBlurOuter1"></feColorMatrix>
        </filter>
    </defs>
    <g id="首页" stroke="none" stroke-width="1" fill="none" fill-rule="evenodd">
        <g id="发现" transform="translate(-109.000000, -525.000000)">
            <rect fill="#F7F7F7" x="0" y="0" width="320" height="568"></rect>
            <g id="Group-2" transform="translate(109.000000, 525.000000)">
                <g id="Rectangle-35-Copy-3" fill="black" fill-opacity="1">
                    <use filter="url(#filter-2)" xlink:href="#path-1"></use>
                </g>
                <g id="Group-6" fill="#25C814">
                    <path d="M10.5846934,8.40724898 L17.7557727,5.82301881 C18.5178186,5.54840157 19.3582001,5.94354057 19.6328174,6.70558646 C19.7511526,7.03395948 19.7484987,7.39377083 19.6253326,7.72036259 L17.1144669,14.378264 C16.8409035,15.1036546 16.7180468,15.3452916 16.5459796,15.5989711 C16.3739125,15.8526506 16.1749665,16.059157 15.9278783,16.240562 C15.68079,16.4219671 15.4439012,16.5537469 14.7292137,16.8541636 L7.59739823,19.8520002 C6.85066899,20.1658855 5.990871,19.8149962 5.67698566,19.068267 C5.53833436,18.7384173 5.52504319,18.3692602 5.63961437,18.0302935 L8.00151582,11.0424448 C8.26833633,10.2530378 8.39797769,9.98708444 8.58381154,9.70954695 C8.76964539,9.43200945 8.98989046,9.20732924 9.26366829,9.01599972 C9.53744612,8.82467021 9.80076232,8.68975295 10.5846934,8.40724898 Z" id="Rectangle-32-Copy-2" fill-opacity="0.3"></path>
                    <path d="M11.055399,20.2162162 C16.0775083,20.2162162 20.1487323,16.0899757 20.1487323,11 C20.1487323,5.91002433 16.0775083,1.78378378 11.055399,1.78378378 C6.03328968,1.78378378 1.96206567,5.91002433 1.96206567,11 C1.96206567,16.0899757 6.03328968,20.2162162 11.055399,20.2162162 Z M11.055399,22 C5.06126852,22 0.202065673,17.0751322 0.202065673,11 C0.202065673,4.92486775 5.06126852,0 11.055399,0 C17.0495295,0 21.9087323,4.92486775 21.9087323,11 C21.9087323,17.0751322 17.0495295,22 11.055399,22 Z" id="Oval-10-Copy" fill-rule="nonzero"></path>
                    <path d="M11.9143213,12.8558566 C12.4693891,12.6225356 12.6205913,12.5438839 12.7555473,12.4444433 C12.8410673,12.3814291 12.8999666,12.3200346 12.9597165,12.2316249 C13.0540058,12.0921088 13.1273356,11.9367168 13.3418802,11.3678227 L14.8630004,7.33436575 L10.3867787,8.94745447 C9.7870561,9.16357554 9.62394033,9.24032158 9.47547455,9.34454009 C9.38023624,9.41139453 9.31373337,9.47958136 9.24887789,9.57687457 C9.14777552,9.7285437 9.0739472,9.89474159 8.8676686,10.5050311 L7.43695202,14.737905 L11.9143213,12.8558566 Z M9.79715006,7.26675138 L14.8727741,5.43765701 C15.6359827,5.16262076 16.4746737,5.56672351 16.7460428,6.34024574 C16.8630113,6.67365801 16.8587886,7.03842527 16.7341339,7.36896429 L14.9858832,12.0046884 C14.7090158,12.73884 14.5850269,12.9832589 14.4117478,13.2396533 C14.2384687,13.4960476 14.0385008,13.7044867 13.7904868,13.8872325 C13.5424728,14.0699783 13.3048868,14.2024515 12.5885778,14.5035498 L7.51061292,16.6380566 C6.76239415,16.9525681 5.90428058,16.5927822 5.59396261,15.8344524 C5.45701853,15.4997996 5.44537584,15.1259783 5.56122246,14.7832381 L7.2026565,9.92694204 C7.47274233,9.12787444 7.60350144,8.85882862 7.79051436,8.57828043 C7.97752727,8.29773224 8.19874617,8.0709117 8.47336899,7.87813473 C8.74799181,7.68535776 9.01191798,7.54972419 9.79715006,7.26675138 Z" id="Rectangle-32-Copy" fill-rule="nonzero"></path>
                </g>
            </g>
        </g>
    </g>
</svg>