<?xml version="1.0" encoding="UTF-8"?>
<svg width="19px" height="22px" viewBox="0 0 19 22" version="1.1" xmlns="http://www.w3.org/2000/svg" xmlns:xlink="http://www.w3.org/1999/xlink">
    <!-- Generator: Sketch 51 (57462) - http://www.bohemiancoding.com/sketch -->
    <title>Group 8 Copy 2</title>
    <desc>Created with Sketch.</desc>
    <defs></defs>
    <g id="首页" stroke="none" stroke-width="1" fill="none" fill-rule="evenodd">
        <g id="首页-山羊森林" transform="translate(-191.000000, -525.000000)">
            <rect fill="#F7F7F7" x="0" y="0" width="320" height="568"></rect>
            <g id="Group-8-Copy-2" transform="translate(191.000000, 525.000000)" fill="#B2B2B2">
                <path d="M17.2283886,15.7147215 C17.6752048,15.7147215 18.0374209,16.0767127 18.0374209,16.5232515 C18.0374209,16.9697903 17.6752048,17.3317814 17.2283886,17.3317814 L5.47085109,17.3317814 C4.43524228,17.3317814 3.91224327,17.2382598 3.36512251,16.9673105 C2.85431386,16.714344 2.44490083,16.3352295 2.16665434,15.8534567 C1.86190586,15.3257968 1.75550286,14.8155735 1.75550286,13.8320169 L1.75550286,4.43492103 C1.75550286,3.41825585 1.47925015,2.6466045 0.934268221,2.07497326 C0.626050043,1.75168338 0.638430891,1.23990008 0.96192162,0.93187327 C1.28541235,0.623846459 1.7975136,0.63621962 2.10573178,0.9595095 C2.95346335,1.84869468 3.37356738,3.02216311 3.37356738,4.43492103 L3.37356738,13.8320169 C3.37356738,14.5548396 3.4236826,14.7951519 3.56803744,15.0450966 C3.68496581,15.2475535 3.85545583,15.4054264 4.08355992,15.5183899 C4.37618935,15.663308 4.66370818,15.7147215 5.47085109,15.7147215 L17.2283886,15.7147215 Z" id="Rectangle-30-Copy" fill-rule="nonzero"></path>
                <ellipse id="Oval-10-Copy-2" cx="5.06237288" cy="19.8903042" rx="1.8420339" ry="1.84075318"></ellipse>
                <ellipse id="Oval-10-Copy-3" cx="13.8474576" cy="19.8903042" rx="1.8420339" ry="1.84075318"></ellipse>
                <path d="M6.40433263,6.26203553 C5.95751646,6.26203553 5.59530038,5.90004435 5.59530038,5.45350559 C5.59530038,5.00696683 5.95751646,4.64497564 6.40433263,4.64497564 L16.107494,4.64497564 C17.6102943,4.64497564 18.8737754,5.72971971 18.8737754,7.13387458 C18.8737754,7.48582605 18.7912566,7.83276968 18.6328072,8.15197461 L16.6523829,12.1416471 C16.3858863,12.678519 16.2148359,12.9354625 15.9518106,13.191804 C15.7019976,13.4352689 15.4112366,13.6194254 15.0756721,13.7489696 C14.7338754,13.8809196 14.4226993,13.9405557 13.7719277,13.9984512 L6.12597341,14.6786691 C5.68091717,14.7182632 5.28801046,14.3897953 5.24839169,13.9450154 C5.20877293,13.5002355 5.53744494,13.1075727 5.98250117,13.0679785 L13.6284555,12.3877607 C14.1417131,12.342099 14.3161443,12.3086697 14.4926218,12.2405409 C14.6270475,12.1886461 14.7313025,12.1226151 14.8221242,12.0341013 C14.9347283,11.9243586 15.010572,11.81043 15.202876,11.4230229 L17.1833003,7.43335044 C17.2316365,7.33597459 17.2557109,7.23475583 17.2557109,7.13387458 C17.2557109,6.68194511 16.7666113,6.26203553 16.107494,6.26203553 L6.40433263,6.26203553 Z" id="Rectangle-31-Copy" fill-rule="nonzero"></path>
            </g>
        </g>
    </g>
</svg>