<?xml version="1.0" encoding="UTF-8"?>
<svg width="20px" height="20px" viewBox="0 0 20 20" version="1.1" xmlns="http://www.w3.org/2000/svg" xmlns:xlink="http://www.w3.org/1999/xlink">
    <!-- Generator: Sketch 51 (57462) - http://www.bohemiancoding.com/sketch -->
    <title>Group Copy</title>
    <desc>Created with Sketch.</desc>
    <defs></defs>
    <g id="首页" stroke="none" stroke-width="1" fill="none" fill-rule="evenodd">
        <g id="首页-山羊森林" transform="translate(-280.000000, -421.000000)">
            <rect fill="#F7F7F7" x="0" y="0" width="320" height="568"></rect>
            <g id="Group-Copy" transform="translate(280.000000, 421.000000)">
                <circle id="Oval-2" fill="#FF6659" cx="10" cy="10" r="10"></circle>
                <path d="M7.94396879,13.9100858 C8.10446307,13.9100858 8.25651028,13.9392826 8.40011042,13.9976762 C8.54371056,14.0560698 8.66830479,14.1374037 8.77389313,14.2416779 C8.87948147,14.3459522 8.96395214,14.4689958 9.02730514,14.6108088 C9.09065815,14.7526218 9.12233465,14.9027767 9.12233465,15.0612735 C9.12233465,15.2197704 9.09065815,15.3699253 9.02730514,15.5117383 C8.96395214,15.6535513 8.87948147,15.7765949 8.77389313,15.8808692 C8.66830479,15.9851434 8.54371056,16.0685628 8.40011042,16.1311274 C8.25651028,16.1936919 8.10446307,16.2249742 7.94396879,16.2249742 C7.77502745,16.2249742 7.61875671,16.1936919 7.47515657,16.1311274 C7.33155643,16.0685628 7.20696219,15.9851434 7.10137386,15.8808692 C6.99578552,15.7765949 6.91131485,15.6535513 6.84796184,15.5117383 C6.78460884,15.3699253 6.75293234,15.2197704 6.75293234,15.0612735 C6.75293234,14.9027767 6.78460884,14.7526218 6.84796184,14.6108088 C6.91131485,14.4689958 6.99578552,14.3459522 7.10137386,14.2416779 C7.20696219,14.1374037 7.33155643,14.0560698 7.47515657,13.9976762 C7.61875671,13.9392826 7.77502745,13.9100858 7.94396879,13.9100858 Z M13.2149386,13.9351116 C13.3754329,13.9351116 13.5295919,13.9643084 13.6774156,14.022702 C13.8252392,14.0810956 13.9519452,14.1624295 14.0575336,14.2667037 C14.1631219,14.370978 14.2475926,14.4940216 14.3109456,14.6358346 C14.3742986,14.7776476 14.4059751,14.9278025 14.4059751,15.0862994 C14.4059751,15.2447962 14.3742986,15.3949511 14.3109456,15.5367641 C14.2475926,15.6785771 14.1631219,15.8016207 14.0575336,15.905895 C13.9519452,16.0101692 13.8252392,16.0935886 13.6774156,16.1561532 C13.5295919,16.2187177 13.3754329,16.25 13.2149386,16.25 C13.0544444,16.25 12.9023972,16.2187177 12.758797,16.1561532 C12.6151969,16.0935886 12.4906026,16.0101692 12.3850143,15.905895 C12.279426,15.8016207 12.1949553,15.6785771 12.1316023,15.5367641 C12.0682493,15.3949511 12.0365728,15.2447962 12.0365728,15.0862994 C12.0365728,14.9278025 12.0682493,14.7776476 12.1316023,14.6358346 C12.1949553,14.4940216 12.279426,14.370978 12.3850143,14.2667037 C12.4906026,14.1624295 12.6151969,14.0810956 12.758797,14.022702 C12.9023972,13.9643084 13.0544444,13.9351116 13.2149386,13.9351116 Z M15.3435995,6.82777866 C15.5801174,6.82777866 15.7638411,6.85906094 15.8947707,6.92162549 C16.0257002,6.98419004 16.1186179,7.06135298 16.1735239,7.15311432 C16.2284298,7.24487567 16.253771,7.34289346 16.2495475,7.44716771 C16.2453239,7.55144196 16.2305416,7.64111782 16.2052004,7.71619528 C16.1798592,7.79127274 16.1249532,7.94559863 16.0404826,8.17917296 C15.9560119,8.41274728 15.8652059,8.66926194 15.7680647,8.94871693 C15.6709234,9.22817192 15.5737821,9.50554143 15.4766408,9.78082545 C15.3794996,10.0561095 15.3013642,10.2729999 15.2422347,10.4314968 C15.1324229,10.7651744 14.995158,10.9966632 14.8304402,11.1259633 C14.6657224,11.2552634 14.460881,11.3199134 14.2159161,11.3199134 L13.7724451,11.3199134 L12.9615266,11.3199134 L11.8971962,11.3199134 L10.7061597,11.3199134 L7.56385078,11.3199134 L7.74123918,12.4460753 L14.1398925,12.4460753 C14.5453517,12.4460753 14.7480813,12.6170851 14.7480813,12.9591046 C14.7480813,13.1259434 14.7079577,13.2719274 14.6277106,13.3970565 C14.5474635,13.5221856 14.389081,13.5805792 14.1525631,13.5722372 L13.5443743,13.5722372 L12.378679,13.5722372 L10.9088893,13.5722372 L9.42642906,13.5722372 L8.19738081,13.5722372 L7.51316837,13.5722372 C7.34422703,13.5722372 7.20273866,13.5346985 7.08870325,13.459621 C6.97466785,13.3845436 6.87963834,13.2865258 6.80361474,13.1655676 C6.72759114,13.0446095 6.6663499,12.913224 6.61989103,12.771411 C6.57343216,12.629598 6.53753213,12.496127 6.51219093,12.3709979 C6.50374386,12.3209462 6.48051443,12.1999881 6.44250262,12.0081235 C6.40449082,11.8162588 6.35803195,11.5764281 6.30312602,11.2886311 C6.24822008,11.0008342 6.18697885,10.6796695 6.11940231,10.325137 C6.05182577,9.97060459 5.98424924,9.61398665 5.9166727,9.25528323 C5.75617843,8.41274728 5.57456648,7.47427902 5.37183688,6.43987845 L4.42154183,6.43987845 C4.29483583,6.43987845 4.18924749,6.40859617 4.10477682,6.34603162 C4.02030615,6.28346707 3.95061784,6.20838961 3.89571191,6.12079924 C3.84080597,6.03320887 3.80279417,5.93936204 3.7816765,5.83925876 C3.76055883,5.73915548 3.75,5.64739414 3.75,5.56397474 C3.75,5.39713593 3.8070177,5.25949392 3.92105311,5.1510487 C4.03508851,5.04260348 4.18924749,4.99255184 4.38353003,5.00089378 L5.66326069,5.00089378 C5.83220203,5.00089378 5.9673551,5.0259196 6.06871991,5.07597124 C6.17008471,5.12602288 6.25033185,5.18858743 6.30946132,5.26366489 C6.36859079,5.33874235 6.41082612,5.4159053 6.43616732,5.49515373 C6.46150853,5.57440216 6.48262619,5.64322317 6.49952033,5.70161675 C6.51641446,5.76835227 6.5333086,5.86219909 6.55020273,5.98315723 C6.56709686,6.10411536 6.583991,6.22715897 6.60088513,6.35228807 C6.62622633,6.502443 6.65156753,6.66093986 6.67690874,6.82777866 L15.3435995,6.82777866 Z M14.8747873,7.94142766 L6.94299135,7.91640184 L7.38646237,10.1812386 L14.0131865,10.1937515 L14.8747873,7.94142766 Z" id="Shape" fill="#FFFFFF" fill-rule="nonzero"></path>
            </g>
        </g>
    </g>
</svg>