<?xml version="1.0" encoding="UTF-8"?>
<svg width="19px" height="26px" viewBox="0 0 19 26" version="1.1" xmlns="http://www.w3.org/2000/svg" xmlns:xlink="http://www.w3.org/1999/xlink">
    <!-- Generator: Sketch 51 (57462) - http://www.bohemiancoding.com/sketch -->
    <title>Group</title>
    <desc>Created with Sketch.</desc>
    <defs>
        <rect id="path-1" x="2" y="20" width="15" height="4" rx="2"></rect>
        <filter x="-20.0%" y="-75.0%" width="140.0%" height="250.0%" filterUnits="objectBoundingBox" id="filter-2">
            <feOffset dx="0" dy="0" in="SourceAlpha" result="shadowOffsetOuter1"></feOffset>
            <feGaussianBlur stdDeviation="1" in="shadowOffsetOuter1" result="shadowBlurOuter1"></feGaussianBlur>
            <feColorMatrix values="0 0 0 0 0.164705882   0 0 0 0 0.745098039   0 0 0 0 0.105882353  0 0 0 0.2 0" type="matrix" in="shadowBlurOuter1"></feColorMatrix>
        </filter>
    </defs>
    <g id="首页" stroke="none" stroke-width="1" fill="none" fill-rule="evenodd">
        <g id="购物车" transform="translate(-191.000000, -525.000000)">
            <rect fill="#F7F7F7" x="0" y="0" width="320" height="568"></rect>
            <g id="Group" transform="translate(191.000000, 525.000000)">
                <g id="Group-8-Copy-4" fill="#25C814">
                    <path d="M8.51229169,7.04805492 L14.1190405,7.04805492 C15.1807069,7.04805492 16.0413576,7.90870562 16.0413576,8.97037206 C16.0413576,9.35935817 15.9233489,9.73919234 15.7029214,10.059695 L14.5884581,11.6801303 C14.1932958,12.2546982 14.0329434,12.4392947 13.8265975,12.6232391 C13.6202515,12.8071835 13.4001701,12.9435724 13.1436146,13.0464973 C12.8870592,13.1494222 12.6503886,13.210869 11.9599947,13.309042 L8.33494168,13.8245197 C6.91042469,14.0270841 5.5914146,13.0364958 5.38885019,11.6119788 C5.3715738,11.4904841 5.36290323,11.3679205 5.36290323,11.2452035 L5.36290323,10.1974434 C5.36290323,9.26461415 5.4838208,8.80540942 5.71087872,8.38084802 C5.93793664,7.95628661 6.27113492,7.62308834 6.69569632,7.39603042 C7.12025773,7.16897249 7.57946246,7.04805492 8.51229169,7.04805492 Z" id="Rectangle-30" fill-opacity="0.3"></path>
                    <path d="M17.0153975,15.5426608 C17.4723686,15.5426608 17.8428168,15.9145616 17.8428168,16.3733244 C17.8428168,16.8320872 17.4723686,17.203988 17.0153975,17.203988 L4.99064316,17.203988 C3.93149778,17.203988 3.39661244,17.1079063 2.83705711,16.8295396 C2.31463917,16.5696481 1.8959213,16.1801552 1.61135103,15.6851938 C1.29967645,15.1430891 1.1908552,14.6188984 1.1908552,13.6084168 L1.1908552,3.95407346 C1.1908552,2.90957686 0.908324013,2.11680141 0.350956135,1.52952164 C0.0357329985,1.19738164 0.0483952297,0.671588168 0.379238021,0.35512906 C0.710080811,0.0386699526 1.23382073,0.0513818317 1.54904386,0.383521837 C2.41604206,1.29704864 2.84569391,2.502641 2.84569391,3.95407346 L2.84569391,13.6084168 C2.84569391,14.3510269 2.89694811,14.5979178 3.04458375,14.8547047 C3.16416958,15.0627039 3.33853437,15.2248986 3.57182264,15.3409545 C3.87110274,15.4898398 4.16515609,15.5426608 4.99064316,15.5426608 L17.0153975,15.5426608 Z" id="Rectangle-30-Copy" fill-rule="nonzero"></path>
                    <ellipse id="Oval-10-Copy-2" cx="4.57288136" cy="19.8325509" rx="1.88389831" ry="1.89114416"></ellipse>
                    <ellipse id="Oval-10-Copy-3" cx="13.5576271" cy="19.8325509" rx="1.88389831" ry="1.89114416"></ellipse>
                    <path d="M5.94534019,5.83120559 C5.4883691,5.83120559 5.11792084,5.45930482 5.11792084,5.00054197 C5.11792084,4.54177913 5.4883691,4.16987836 5.94534019,4.16987836 L15.8690279,4.16987836 C17.4059828,4.16987836 18.6981794,5.28431751 18.6981794,6.72691141 C18.6981794,7.08849762 18.6137852,7.4449389 18.4517346,7.77288213 L16.4263007,11.8717727 C16.1537474,12.4233416 15.9788094,12.6873189 15.7098063,12.9506778 C15.4543157,13.2008077 15.1569465,13.3900055 14.8137555,13.5230959 C14.4641908,13.6586582 14.1459425,13.7199268 13.4803806,13.7794072 L5.66065462,14.4782461 C5.20548347,14.5189242 4.80364706,14.1814644 4.76312787,13.7245085 C4.72260868,13.2675527 5.0587505,12.8641407 5.51392165,12.8234626 L13.3336477,12.1246237 C13.8585702,12.0777121 14.0369658,12.0433676 14.2174541,11.9733737 C14.3549349,11.9200583 14.4615594,11.8522197 14.5544452,11.7612828 C14.6696084,11.6485359 14.7471759,11.5314884 14.9438505,11.133476 L16.9692844,7.03458548 C17.0187191,6.93454394 17.0433407,6.8305543 17.0433407,6.72691141 C17.0433407,6.26261028 16.5431252,5.83120559 15.8690279,5.83120559 L5.94534019,5.83120559 Z" id="Rectangle-31-Copy" fill-rule="nonzero"></path>
                </g>
                <g id="Rectangle-35-Copy-3" fill="black" fill-opacity="1">
                    <use filter="url(#filter-2)" xlink:href="#path-1"></use>
                </g>
            </g>
        </g>
    </g>
</svg>