<?xml version="1.0" encoding="UTF-8"?>
<svg width="24px" height="24px" viewBox="0 0 24 24" version="1.1" xmlns="http://www.w3.org/2000/svg" xmlns:xlink="http://www.w3.org/1999/xlink">
    <!-- Generator: Sketch 51 (57462) - http://www.bohemiancoding.com/sketch -->
    <title>Artboard Copy 7</title>
    <desc>Created with Sketch.</desc>
    <defs>
        <rect id="path-1" x="3.14285714" y="20" width="15.7142857" height="4" rx="2"></rect>
        <filter x="-19.1%" y="-75.0%" width="138.2%" height="250.0%" filterUnits="objectBoundingBox" id="filter-2">
            <feOffset dx="0" dy="0" in="SourceAlpha" result="shadowOffsetOuter1"></feOffset>
            <feGaussianBlur stdDeviation="1" in="shadowOffsetOuter1" result="shadowBlurOuter1"></feGaussianBlur>
            <feColorMatrix values="0 0 0 0 0.164705882   0 0 0 0 0.745098039   0 0 0 0 0.105882353  0 0 0 0 0" type="matrix" in="shadowBlurOuter1"></feColorMatrix>
        </filter>
    </defs>
    <g id="Artboard-Copy-7" stroke="none" stroke-width="1" fill="none" fill-rule="evenodd">
        <g id="Group-25-Copy" transform="translate(1.000000, 0.000000)">
            <g id="Rectangle-35-Copy-6" fill="black" fill-opacity="1">
                <use filter="url(#filter-2)" xlink:href="#path-1"></use>
            </g>
            <g id="Group-6-Copy-5" fill="#B2B2B2" fill-rule="nonzero">
                <path d="M10.8650794,11.2141291 C7.62539574,11.2141291 5.00974026,8.69844116 5.00974026,5.60706455 C5.00974026,2.51568794 7.62539574,0 10.8650794,0 C14.104763,0 16.7204185,2.51568794 16.7204185,5.60706455 C16.7204185,8.69844116 14.104763,11.2141291 10.8650794,11.2141291 Z M10.8650794,9.49984338 C13.0805027,9.49984338 14.8870851,7.76230657 14.8870851,5.60706455 C14.8870851,3.45182253 13.0805027,1.71428571 10.8650794,1.71428571 C8.64965605,1.71428571 6.84307359,3.45182253 6.84307359,5.60706455 C6.84307359,7.76230657 8.64965605,9.49984338 10.8650794,9.49984338 Z" id="Oval-11"></path>
                <path d="M5.22088229,13.8970677 C4.49291779,13.8970677 3.86578682,14.0391058 3.35914914,14.2997222 C2.89018907,14.540957 2.52193724,14.8852964 2.26394997,15.3238045 C1.98523526,15.7975437 1.83333333,16.3839518 1.83333333,17.0646459 C1.83333333,17.74534 1.98523526,18.3317482 2.26394997,18.8054873 C2.52193724,19.2439954 2.89018907,19.5883348 3.35914914,19.8295697 C3.86578682,20.090186 4.49291779,20.2322242 5.22088229,20.2322242 L16.5092764,20.2322242 C17.2372409,20.2322242 17.8643719,20.090186 18.3710096,19.8295697 C18.8399697,19.5883348 19.2082215,19.2439954 19.4662088,18.8054873 C19.7449235,18.3317482 19.8968254,17.74534 19.8968254,17.0646459 C19.8968254,16.3839518 19.7449235,15.7975437 19.4662088,15.3238045 C19.2082215,14.8852964 18.8399697,14.540957 18.3710096,14.2997222 C17.8643719,14.0391058 17.2372409,13.8970677 16.5092764,13.8970677 L5.22088229,13.8970677 Z M5.22088229,12.182782 L16.5092764,12.182782 C17.5531598,12.182782 18.481219,12.399845 19.254683,12.7977179 C20.0281471,13.1955907 20.647016,13.7742734 21.0725189,14.4975125 C21.4980218,15.2207516 21.7301587,16.0885472 21.7301587,17.0646459 C21.7301587,18.0407447 21.4980218,18.9085403 21.0725189,19.6317794 C20.647016,20.3550185 20.0281471,20.9337011 19.254683,21.331574 C18.481219,21.7294468 17.5531598,21.9465099 16.5092764,21.9465099 L5.22088229,21.9465099 C4.17699889,21.9465099 3.24893973,21.7294468 2.47547568,21.331574 C1.70201164,20.9337011 1.08314272,20.3550185 0.657639809,19.6317794 C0.232136899,18.9085403 3.54749173e-15,18.0407447 3.41965288e-15,17.0646459 C2.28757756e-15,16.0885472 0.232136899,15.2207516 0.657639809,14.4975125 C1.08314272,13.7742734 1.70201164,13.1955907 2.47547568,12.7977179 C3.24893973,12.399845 4.17699889,12.182782 5.22088229,12.182782 Z" id="Rectangle-29"></path>
            </g>
        </g>
    </g>
</svg>