<?xml version="1.0" encoding="UTF-8"?>
<svg width="24px" height="24px" viewBox="0 0 24 24" version="1.1" xmlns="http://www.w3.org/2000/svg" xmlns:xlink="http://www.w3.org/1999/xlink">
    <!-- Generator: Sketch 51 (57462) - http://www.bohemiancoding.com/sketch -->
    <title>Shape Copy 3</title>
    <desc>Created with Sketch.</desc>
    <defs></defs>
    <g id="我的" stroke="none" stroke-width="1" fill="none" fill-rule="evenodd">
        <path d="M2.7357513,21.3265823 L21.8860104,21.3265823 C22.507772,21.2658228 22.4455959,21.4481013 22.4455959,20.7797468 L22.4455959,19.2607595 C22.4455959,18.4101266 22.2590674,18.2278481 21.388601,18.2278481 L17.6580311,18.2278481 C17.1606218,17.8632911 17.0984456,17.3772152 16.9740933,17.2556962 C14.7979275,14.8860759 16.0414508,13.3063291 17.4093264,11.1189873 C17.6580311,10.8151899 17.9067358,10.5113924 18.0932642,10.1468354 C18.6528497,9.17468354 18.9637306,8.08101266 18.9637306,6.86582278 C18.9637306,3.09873418 15.8549223,0 11.9378238,0 C8.08290155,0 4.9119171,3.03797468 4.9119171,6.86582278 C4.9119171,8.44556962 5.47150259,9.90379747 6.40414508,11.0582278 C7.89637306,13.3670886 10.3212435,15.2506329 6.40414508,18.2278481 L2.67357513,18.2278481 C1.98963731,18.2278481 1.61658031,18.5924051 1.61658031,19.2607595 L1.61658031,20.8405063 C1.61658031,21.4481013 2.05181347,21.3265823 2.7357513,21.3265823 Z M23.5025907,22.3594937 L0.559585492,22.3594937 C0.248704663,22.3594937 0,22.6025316 0,22.9063291 L0,23.4531646 C0,23.756962 0.248704663,24 0.559585492,24 L23.4404145,24 C23.7512953,24 24,23.756962 24,23.4531646 L24,22.9063291 C24,22.6025316 23.7512953,22.3594937 23.5025907,22.3594937 Z" id="Shape-Copy-3" fill="#4A4A4A" fill-rule="nonzero"></path>
    </g>
</svg>