<?xml version="1.0" encoding="UTF-8"?>
<svg width="20px" height="20px" viewBox="0 0 20 20" version="1.1" xmlns="http://www.w3.org/2000/svg" xmlns:xlink="http://www.w3.org/1999/xlink">
    <!-- Generator: Sketch 51 (57462) - http://www.bohemiancoding.com/sketch -->
    <title>Group 5 Copy 3</title>
    <desc>Created with Sketch.</desc>
    <defs></defs>
    <g id="首页" stroke="none" stroke-width="1" fill="none" fill-rule="evenodd">
        <g id="我的" transform="translate(-30.000000, -551.000000)">
            <rect fill="#F7F7F7" x="0" y="0" width="320" height="592"></rect>
            <g id="Group-5-Copy-3" transform="translate(29.000000, 549.000000)" fill="#B2B2B2">
                <path d="M4.45945946,5.21413721 C4.04266244,5.21413721 3.7047817,4.87625647 3.7047817,4.45945946 C3.7047817,4.04266244 4.04266244,3.7047817 4.45945946,3.7047817 L15.024948,3.7047817 C16.8310684,3.7047817 18.2952183,5.16893158 18.2952183,6.97505198 L18.2952183,17.5405405 C18.2952183,17.9573376 17.9573376,18.2952183 17.5405405,18.2952183 C17.1237435,18.2952183 16.7858628,17.9573376 16.7858628,17.5405405 L16.7858628,6.97505198 C16.7858628,6.00252561 15.9974744,5.21413721 15.024948,5.21413721 L4.45945946,5.21413721 Z" id="Rectangle-26" fill-rule="nonzero" transform="translate(11.000000, 11.000000) rotate(-45.000000) translate(-11.000000, -11.000000) "></path>
                <path d="M17.037422,5.46569647 C17.037422,5.04889945 17.3753028,4.71101871 17.7920998,4.71101871 C18.2088968,4.71101871 18.5467775,5.04889945 18.5467775,5.46569647 L18.5467775,17.717079 C18.5467775,18.648347 18.4566953,19.1243013 18.196608,19.6204953 C17.9553785,20.0807125 17.5960559,20.4473299 17.1427685,20.6946722 C16.6511197,20.9629468 16.1780819,21.0561491 15.2591305,21.0561491 L6.74086954,21.0561491 C5.82191814,21.0561491 5.3488803,20.9629468 4.85723151,20.6946722 C4.40394407,20.4473299 4.04462149,20.0807125 3.80339198,19.6204953 C3.54330466,19.1243013 3.45322245,18.648347 3.45322245,17.717079 L3.45322245,8.52188544 C3.45322245,8.10508843 3.79110319,7.76720769 4.20790021,7.76720769 C4.62469722,7.76720769 4.96257796,8.10508843 4.96257796,8.52188544 L4.96257796,17.717079 C4.96257796,18.4244468 5.00890757,18.6692318 5.14023156,18.9197715 C5.24341257,19.11662 5.38949843,19.2656716 5.58020267,19.3697319 C5.8204294,19.5008148 6.05378991,19.5467936 6.74086954,19.5467936 L15.2591305,19.5467936 C15.9462101,19.5467936 16.1795706,19.5008148 16.4197973,19.3697319 C16.6105016,19.2656716 16.7565874,19.11662 16.8597684,18.9197715 C16.9910924,18.6692318 17.037422,18.4244468 17.037422,17.717079 L17.037422,5.46569647 Z" id="Rectangle-27" fill-rule="nonzero"></path>
                <circle id="Oval-6" cx="11.1257796" cy="10.3711019" r="2.13825364"></circle>
            </g>
        </g>
    </g>
</svg>