<?xml version="1.0" encoding="UTF-8"?>
<svg width="20px" height="22px" viewBox="0 0 20 22" version="1.1" xmlns="http://www.w3.org/2000/svg" xmlns:xlink="http://www.w3.org/1999/xlink">
    <!-- Generator: Sketch 51 (57462) - http://www.bohemiancoding.com/sketch -->
    <title>Group 6 Copy 3</title>
    <desc>Created with Sketch.</desc>
    <defs></defs>
    <g id="首页" stroke="none" stroke-width="1" fill="none" fill-rule="evenodd">
        <g id="首页-山羊森林" transform="translate(-270.000000, -525.000000)">
            <rect fill="#F7F7F7" x="0" y="0" width="320" height="568"></rect>
            <g id="Group-6-Copy-3" transform="translate(270.000000, 525.000000)" fill="#B2B2B2" fill-rule="nonzero">
                <path d="M10,11.2444947 C7.01826051,11.2444947 4.61086394,8.73588924 4.61086394,5.65321583 C4.61086394,2.57054243 7.01826051,0.0619369369 10,0.0619369369 C12.9817395,0.0619369369 15.3891361,2.57054243 15.3891361,5.65321583 C15.3891361,8.73588924 12.9817395,11.2444947 10,11.2444947 Z M10,9.53503527 C12.039031,9.53503527 13.701773,7.80239017 13.701773,5.65321583 C13.701773,3.5040415 12.039031,1.7713964 10,1.7713964 C7.96096904,1.7713964 6.29822697,3.5040415 6.29822697,5.65321583 C6.29822697,7.80239017 7.96096904,9.53503527 10,9.53503527 Z" id="Oval-11"></path>
                <path d="M4.80519481,13.91988 C4.13519095,13.91988 3.55799225,14.0615183 3.09169315,14.3214009 C2.66007175,14.5619566 2.32114019,14.9053266 2.08369391,15.3426001 C1.82717051,15.8150055 1.68736304,16.3997628 1.68736304,17.0785405 C1.68736304,17.7573182 1.82717051,18.3420755 2.08369391,18.8144809 C2.32114019,19.2517545 2.66007175,19.5951244 3.09169315,19.8356801 C3.55799225,20.0955627 4.13519095,20.237201 4.80519481,20.237201 L15.1948052,20.237201 C15.864809,20.237201 16.4420078,20.0955627 16.9083069,19.8356801 C17.3399283,19.5951244 17.6788598,19.2517545 17.9163061,18.8144809 C18.1728295,18.3420755 18.312637,17.7573182 18.312637,17.0785405 C18.312637,16.3997628 18.1728295,15.8150055 17.9163061,15.3426001 C17.6788598,14.9053266 17.3399283,14.5619566 16.9083069,14.3214009 C16.4420078,14.0615183 15.864809,13.91988 15.1948052,13.91988 L4.80519481,13.91988 Z M4.80519481,12.2104205 L15.1948052,12.2104205 C16.1555744,12.2104205 17.0097414,12.4268725 17.7216221,12.8236252 C18.4335028,13.2203779 19.0030973,13.7974314 19.3947216,14.5186343 C19.7863459,15.2398373 20,16.1051898 20,17.0785405 C20,18.0518912 19.7863459,18.9172437 19.3947216,19.6384467 C19.0030973,20.3596496 18.4335028,20.9367031 17.7216221,21.3334558 C17.0097414,21.7302085 16.1555744,21.9466605 15.1948052,21.9466605 L4.80519481,21.9466605 C3.84442557,21.9466605 2.99025862,21.7302085 2.27837791,21.3334558 C1.5664972,20.9367031 0.996902721,20.3596496 0.605278422,19.6384467 C0.213654122,18.9172437 3.53731318e-15,18.0518912 3.41965288e-15,17.0785405 C2.37771358e-15,16.1051898 0.213654122,15.2398373 0.605278422,14.5186343 C0.996902721,13.7974314 1.5664972,13.2203779 2.27837791,12.8236252 C2.99025862,12.4268725 3.84442557,12.2104205 4.80519481,12.2104205 Z" id="Rectangle-29"></path>
            </g>
        </g>
    </g>
</svg>