<?xml version="1.0" encoding="UTF-8"?>
<svg width="21px" height="26px" viewBox="0 0 21 26" version="1.1" xmlns="http://www.w3.org/2000/svg" xmlns:xlink="http://www.w3.org/1999/xlink">
    <!-- Generator: Sketch 51 (57462) - http://www.bohemiancoding.com/sketch -->
    <title>Group</title>
    <desc>Created with Sketch.</desc>
    <defs>
        <rect id="path-1" x="3" y="20" width="15" height="4" rx="2"></rect>
        <filter x="-20.0%" y="-75.0%" width="140.0%" height="250.0%" filterUnits="objectBoundingBox" id="filter-2">
            <feOffset dx="0" dy="0" in="SourceAlpha" result="shadowOffsetOuter1"></feOffset>
            <feGaussianBlur stdDeviation="1" in="shadowOffsetOuter1" result="shadowBlurOuter1"></feGaussianBlur>
            <feColorMatrix values="0 0 0 0 0.164705882   0 0 0 0 0.745098039   0 0 0 0 0.105882353  0 0 0 0.2 0" type="matrix" in="shadowBlurOuter1"></feColorMatrix>
        </filter>
    </defs>
    <g id="首页" stroke="none" stroke-width="1" fill="none" fill-rule="evenodd">
        <g id="我的" transform="translate(-270.000000, -525.000000)">
            <rect fill="#F7F7F7" x="0" y="0" width="320" height="568"></rect>
            <g id="Group" transform="translate(270.000000, 525.000000)">
                <g id="Rectangle-35-Copy-3" fill="black" fill-opacity="1">
                    <use filter="url(#filter-2)" xlink:href="#path-1"></use>
                </g>
                <g id="Group-6-Copy-4" fill="#25C814">
                    <ellipse id="Oval-9" fill-opacity="0.3" cx="11.0833333" cy="6.85714286" rx="3.20833333" ry="2.85714286"></ellipse>
                    <rect id="Rectangle-31" fill-opacity="0.3" x="4.66666667" y="15.4285714" width="14.5833333" height="5.71428571" rx="2.85714286"></rect>
                    <path d="M10.3712121,11.2141291 C7.27878684,11.2141291 4.78202479,8.69844116 4.78202479,5.60706455 C4.78202479,2.51568794 7.27878684,0 10.3712121,0 C13.4636374,0 15.9603994,2.51568794 15.9603994,5.60706455 C15.9603994,8.69844116 13.4636374,11.2141291 10.3712121,11.2141291 Z M10.3712121,9.49984338 C12.4859344,9.49984338 14.2103994,7.76230657 14.2103994,5.60706455 C14.2103994,3.45182253 12.4859344,1.71428571 10.3712121,1.71428571 C8.25648986,1.71428571 6.53202479,3.45182253 6.53202479,5.60706455 C6.53202479,7.76230657 8.25648986,9.49984338 10.3712121,9.49984338 Z" id="Oval-11" fill-rule="nonzero"></path>
                    <path d="M4.98356946,13.8970677 C4.28869425,13.8970677 3.69006923,14.0391058 3.20646054,14.2997222 C2.75881684,14.540957 2.40730373,14.8852964 2.16104315,15.3238045 C1.89499729,15.7975437 1.75,16.3839518 1.75,17.0646459 C1.75,17.74534 1.89499729,18.3317482 2.16104315,18.8054873 C2.40730373,19.2439954 2.75881684,19.5883348 3.20646054,19.8295697 C3.69006923,20.090186 4.28869425,20.2322242 4.98356946,20.2322242 L15.7588548,20.2322242 C16.45373,20.2322242 17.052355,20.090186 17.5359637,19.8295697 C17.9836074,19.5883348 18.3351205,19.2439954 18.5813811,18.8054873 C18.8474269,18.3317482 18.9924242,17.74534 18.9924242,17.0646459 C18.9924242,16.3839518 18.8474269,15.7975437 18.5813811,15.3238045 C18.3351205,14.8852964 17.9836074,14.540957 17.5359637,14.2997222 C17.052355,14.0391058 16.45373,13.8970677 15.7588548,13.8970677 L4.98356946,13.8970677 Z M4.98356946,12.182782 L15.7588548,12.182782 C16.7552889,12.182782 17.6411636,12.399845 18.3794702,12.7977179 C19.1177768,13.1955907 19.7085153,13.7742734 20.1146772,14.4975125 C20.520839,15.2207516 20.7424242,16.0885472 20.7424242,17.0646459 C20.7424242,18.0407447 20.520839,18.9085403 20.1146772,19.6317794 C19.7085153,20.3550185 19.1177768,20.9337011 18.3794702,21.331574 C17.6411636,21.7294468 16.7552889,21.9465099 15.7588548,21.9465099 L4.98356946,21.9465099 C3.98713531,21.9465099 3.10126065,21.7294468 2.36295406,21.331574 C1.62464747,20.9337011 1.03390896,20.3550185 0.62774709,19.6317794 C0.221585222,18.9085403 3.54168087e-15,18.0407447 3.41965288e-15,17.0646459 C2.33903553e-15,16.0885472 0.221585222,15.2207516 0.62774709,14.4975125 C1.03390896,13.7742734 1.62464747,13.1955907 2.36295406,12.7977179 C3.10126065,12.399845 3.98713531,12.182782 4.98356946,12.182782 Z" id="Rectangle-29" fill-rule="nonzero"></path>
                </g>
            </g>
        </g>
    </g>
</svg>