<?xml version="1.0" encoding="UTF-8"?>
<svg width="20px" height="20px" viewBox="0 0 20 20" version="1.1" xmlns="http://www.w3.org/2000/svg" xmlns:xlink="http://www.w3.org/1999/xlink">
    <!-- Generator: Sketch 51 (57462) - http://www.bohemiancoding.com/sketch -->
    <title>Combined Shape</title>
    <desc>Created with Sketch.</desc>
    <defs></defs>
    <g id="首页" stroke="none" stroke-width="1" fill="none" fill-rule="evenodd">
        <g id="购物车" transform="translate(-14.000000, -483.000000)">
            <rect fill="#F7F7F7" x="0" y="0" width="320" height="568"></rect>
            <path d="M23.3284271,493.914214 L21.1213203,491.707107 C20.7307961,491.316582 20.0976311,491.316582 19.7071068,491.707107 C19.3165825,492.097631 19.3165825,492.730796 19.7071068,493.12132 L22.5355339,495.949747 C22.7526353,496.166849 23.0447247,496.263259 23.3284271,496.238977 C23.6121295,496.263259 23.904219,496.166849 24.1213203,495.949747 L29.0710678,491 C29.4615921,490.609476 29.4615921,489.976311 29.0710678,489.585786 C28.6805435,489.195262 28.0473785,489.195262 27.6568542,489.585786 L23.3284271,493.914214 Z M24,503 C18.4771525,503 14,498.522847 14,493 C14,487.477153 18.4771525,483 24,483 C29.5228475,483 34,487.477153 34,493 C34,498.522847 29.5228475,503 24,503 Z" id="Combined-Shape" fill="#FF6659"></path>
        </g>
    </g>
</svg>