<?xml version="1.0" encoding="UTF-8"?>
<svg width="24px" height="24px" viewBox="0 0 24 24" version="1.1" xmlns="http://www.w3.org/2000/svg" xmlns:xlink="http://www.w3.org/1999/xlink">
    <!-- Generator: Sketch 51 (57462) - http://www.bohemiancoding.com/sketch -->
    <title>Group 4 Copy</title>
    <desc>Created with Sketch.</desc>
    <defs>
        <linearGradient x1="50%" y1="0%" x2="50%" y2="100%" id="linearGradient-1">
            <stop stop-color="#74CF5B" offset="0%"></stop>
            <stop stop-color="#32AF1E" offset="100%"></stop>
        </linearGradient>
    </defs>
    <g id="首页" stroke="none" stroke-width="1" fill="none" fill-rule="evenodd">
        <g id="Group-4-Copy">
            <path d="M11.1512517,22.5671642 C11.5469183,22.5671642 11.8676696,22.8879154 11.8676696,23.2835821 C11.8676696,23.6792488 11.5469183,24 11.1512517,24 L2.70485493,24 C1.96563549,24 1.57590907,23.9241955 1.17017223,23.7056341 C0.792619684,23.5022549 0.492347544,23.1998089 0.290838869,22.8202925 C0.0748256497,22.4134587 0,22.0231744 0,21.2807492 L0,2.71925085 C0,1.9768256 0.0748256497,1.58654131 0.290838869,1.17970748 C0.492347544,0.800191131 0.792619684,0.497745075 1.17017223,0.294365919 C1.57590907,0.0758045086 1.96563549,0 2.70485493,0 L16.9966376,0 C17.735857,0 18.1255835,0.0758045086 18.5313203,0.294365919 C18.9088729,0.497745075 19.209145,0.800191131 19.4106537,1.17970748 C19.6266669,1.58654131 19.7014925,1.9768256 19.7014925,2.71925085 L19.7014925,8.88124455 C19.7014925,9.27691123 19.3807413,9.59766246 18.9850746,9.59766246 C18.5894079,9.59766246 18.2686567,9.27691123 18.2686567,8.88124455 L18.2686567,2.71925085 C18.2686567,2.19177843 18.2363961,2.02350962 18.1451427,1.85164541 C18.0762815,1.72195395 17.9797969,1.62477074 17.8518017,1.55582258 C17.683,1.46489289 17.5181881,1.43283582 16.9966376,1.43283582 L2.70485493,1.43283582 C2.18330445,1.43283582 2.01849251,1.46489289 1.84969087,1.55582258 C1.72169568,1.62477074 1.625211,1.72195395 1.55634979,1.85164541 C1.46509647,2.02350962 1.43283582,2.19177843 1.43283582,2.71925085 L1.43283582,21.2807492 C1.43283582,21.8082216 1.46509647,21.9764904 1.55634979,22.1483546 C1.625211,22.278046 1.72169568,22.3752293 1.84969087,22.4441774 C2.01849251,22.5351071 2.18330445,22.5671642 2.70485493,22.5671642 L11.1512517,22.5671642 Z" id="Rectangle-39" fill="#4A4A4A" fill-rule="nonzero"></path>
            <path d="M18.2686567,23.2835821 C15.1033232,23.2835821 12.5373134,20.7175723 12.5373134,17.5522388 C12.5373134,14.3869053 15.1033232,11.8208955 18.2686567,11.8208955 C21.4339902,11.8208955 24,14.3869053 24,17.5522388 C24,20.7175723 21.4339902,23.2835821 18.2686567,23.2835821 Z M18.2686567,21.8507463 C20.6426568,21.8507463 22.5671642,19.9262389 22.5671642,17.5522388 C22.5671642,15.1782387 20.6426568,13.2537313 18.2686567,13.2537313 C15.8946566,13.2537313 13.9701493,15.1782387 13.9701493,17.5522388 C13.9701493,19.9262389 15.8946566,21.8507463 18.2686567,21.8507463 Z" id="Oval-14" fill="#4A4A4A" fill-rule="nonzero"></path>
            <rect id="Rectangle-40" fill="url(#linearGradient-1)" x="4.29850746" y="4.29850746" width="11.8208955" height="3.96575563" rx="1.29230769"></rect>
            <rect id="Rectangle-40-Copy" fill="#4A4A4A" x="4" y="12" width="8.95522388" height="1.43283582" rx="0.71641791"></rect>
            <rect id="Rectangle-40-Copy-2" fill="#4A4A4A" x="4" y="17" width="6.44776119" height="1.43283582" rx="0.71641791"></rect>
            <path d="M17.8309879,17.917904 L19.8573238,15.8915681 C20.1371024,15.6117895 20.5907131,15.6117895 20.8704917,15.8915681 C21.1502703,16.1713467 21.1502703,16.6249575 20.8704917,16.9047361 L18.3375719,19.4376559 C18.1976826,19.5775452 18.0143352,19.6474898 17.8309879,19.6474898 C17.6476406,19.6474898 17.4642932,19.5775452 17.324404,19.4376559 L15.5513601,17.664612 C15.2715815,17.3848334 15.2715815,16.9312227 15.5513601,16.6514441 C15.8311387,16.3716655 16.2847494,16.3716655 16.564528,16.6514441 L17.8309879,17.917904 Z" id="Combined-Shape" fill="#4A4A4A"></path>
        </g>
    </g>
</svg>